<?xml version="1.0" encoding="utf-8"?>
<!-- Generator: Adobe Illustrator 15.0.0, SVG Export Plug-In . SVG Version: 6.00 Build 0)  -->
<!DOCTYPE svg PUBLIC "-//W3C//DTD SVG 1.1//EN" "http://www.w3.org/Graphics/SVG/1.1/DTD/svg11.dtd">
<svg version="1.1" id="Layer_1" xmlns="http://www.w3.org/2000/svg" xmlns:xlink="http://www.w3.org/1999/xlink" x="0px" y="0px"
	 width="360px" height="360px" viewBox="0 0 360 360" enable-background="new 0 0 360 360" xml:space="preserve">
<path fill-rule="evenodd" clip-rule="evenodd" fill="#FFFFFF" d="M744-371c12,0,24,0,36,0c0,13,0,26,0,39
	c-5.712,1.045-1.898-7.435-3-11c-6.494-7.843-11.721-22.273-23-22c-1.556-0.261-0.693-2.193,0-3c-3.039-0.627-8.613,1.28-10-1
	C744-369.667,744-370.333,744-371z"/>
<path fill-rule="evenodd" clip-rule="evenodd" d="M48.547,119.014c0.873,0.003,0.604-1.135,0.652-1.957
	c1.578-1.031,2.883-2.335,3.914-3.914c1.246,0.159,1.723-0.451,1.957-1.305c0.683-0.187,2.248,0.508,1.957-0.652
	c2.299-0.238,4.07-1.003,6.958-0.652c0.255-0.035,0.183-0.396,0.217-0.652c1.792-0.383,5.146,0.798,5.871-0.652
	c4.003,0.208,6.662-0.383,9.784,0.217c0.014,0.003-0.269,0.312-0.435,0.218c1.482,0.841,4.839,0.388,6.958,0.87
	c-0.291,1.161,1.274,0.465,1.957,0.652c-0.291,1.16,1.274,0.465,1.957,0.652c0.449,0.855,1.392,1.217,2.609,1.305
	c0.267,1.137,1.822,0.947,2.609,1.305c-0.039-0.018,0.352,1.214,1.305,0.652c-0.369,1.021,1.021,0.283,0.652,1.304
	c0.435,0,0.87,0,1.305,0c-0.369,1.021,1.021,0.283,0.652,1.305c0.435,0,0.87,0,1.304,0c0.463,1.493,2.146,1.768,2.609,3.261
	c0.435,0,0.87,0,1.304,0c1.306,2.536,4.265,3.418,5.218,6.305c1.137,1.11,2.491,2.002,3.261,3.479c0.435,0,0.87,0,1.305,0
	c1.132,2.129,3.434,3.089,4.566,5.218c0.435,0,0.87,0,1.304,0c-0.026,1.113,1.331,0.843,1.305,1.957c0.435,0,0.87,0,1.305,0
	c-0.369,1.021,1.021,0.283,0.652,1.305c1.876-0.138,2.037,1.442,3.914,1.304c0.061,0.352-0.206,0.375-0.218,0.652
	c1.375,0.003,2.322,0.432,2.827,1.305c0.827,0.26,2.794-0.621,2.609,0.652c1.884,0,3.769,0,5.653,0
	c0.358-0.807,1.993-1.478,1.522-2.392c0.002-0.511,0.593,0.079,0.435,0.435c-0.309-0.795,1.352-1.55,0.87-2.392
	c0.077-0.305,0.383-0.019,0.435,0.217c0.082-1.057,1.421-1.342,0.87-2.392c0.506,0.897,1.2-0.685,1.305-1.957
	c1.021,0.369,0.283-1.021,1.304-0.652c0-0.435,0-0.87,0-1.305c1.021,0.369,0.283-1.021,1.305-0.652c0-0.435,0-0.87,0-1.304
	c1.021,0.369,0.283-1.021,1.305-0.652c0.063-0.589-0.306-1.61,0.652-1.305c-0.018-4.456,0.024-9.953,0-13.697
	c1.367-0.59,0.59-3.324,1.957-3.914c0-1.957,0-3.914,0-5.871c0.217,0,0.435,0,0.652,0c0-3.914,0-7.827,0-11.741
	c1.272,0.186,0.392-1.782,0.652-2.609c1.161,0.291,0.465-1.273,0.652-1.957c1.137-0.267,0.947-1.822,1.304-2.609
	c-0.018,0.039,1.214-0.352,0.652-1.305c1.493-0.463,1.768-2.146,3.261-2.609c0-0.435,0-0.87,0-1.305
	c2.447-1.902,4.621-4.076,6.523-6.523c1.217-0.087,2.159-0.449,2.609-1.304c0.827-0.26,2.794,0.621,2.609-0.652
	c3.914,0,7.827,0,11.741,0c-0.291,1.161,1.273,0.465,1.957,0.652c-0.369,1.021,1.021,0.283,0.652,1.304c0.434,0,0.869,0,1.305,0
	c0.371,0.933,1.023,1.585,1.956,1.957c-0.159,1.247,0.451,1.723,1.305,1.957c0.063,0.589-0.306,1.61,0.652,1.304
	c0.087,1.217,0.449,2.16,1.304,2.609c0.261,0.827-0.619,2.794,0.652,2.609c0.344,1.251-0.742,3.932,0.652,4.131
	c0,3.841,0,7.683,0,11.523c1.146-0.593,2.016-1.463,2.609-2.609c1.246,0.159,1.724-0.451,1.957-1.305
	c1.217-0.088,2.16-0.45,2.609-1.305c0.683-0.187,2.247,0.508,1.957-0.652c4.75-0.402,8.173,0.523,12.393,0.652
	c-0.035,1.34,2.262,0.347,3.262,0.652c-0.291,1.161,1.273,0.466,1.956,0.652c-0.306,0.958,0.716,0.589,1.305,0.652
	c-0.383,0.838,1.15,0.851,1.087,0.652c0.59,0.448-0.497,0.19-0.435,0.435c0.027,0.48,0.923,0.092,1.305,0.218
	c0.372,0.932,1.024,1.584,1.956,1.957c-0.137,1.877,1.442,2.037,1.305,3.914c0.096,0.323,0.278-0.085,0.652,0
	c0,1.739,0,3.479,0,5.218c1.362-0.813,2.449-1.899,3.262-3.261c1.217-0.088,2.16-0.45,2.609-1.305
	c0.998-0.306,3.297,0.688,3.261-0.652c0.87,0,1.739,0,2.609,0c0,0.217,0,0.435,0,0.652c1.955-0.434,2.009,1.035,3.913,0.652
	c1.197,1.629,4.021,1.632,5.219,3.261c0.652,0,1.305,0,1.957,0c0.329,1.413,2.503,2.131,3.043,2.609
	c0.122,0.613,0.37,1.793,1.522,1.957c0.187,0.683-0.509,2.248,0.652,1.957c0.19,1.282-0.511,3.788,0.652,3.479
	c0,0.58,0,1.16,0,1.739c-1.45,0.724-0.271,4.079-0.652,5.871c-0.218,0-0.435,0-0.652,0c0.441,2.615-0.655,3.693-0.652,5.87
	c1.204,0.066,2.195-0.568,1.957-1.304c0.435,0,0.87,0,1.304,0c0-0.435,0-0.87,0-1.305c1.114,0.026,0.844-1.331,1.957-1.305
	c0-0.435,0-0.87,0-1.304c0.352-0.062,0.375,0.205,0.652,0.217c-0.008-0.95,0.568-1.316,1.305-1.522c0-0.435,0-0.87,0-1.305
	c1.113,0.026,0.844-1.331,1.957-1.305c0-0.435,0-0.87,0-1.304c1.021,0.369,0.283-1.021,1.305-0.652
	c-0.42-1.506,1.071-1.103,0.652-2.609c1.021,0.369,0.283-1.021,1.305-0.652c-0.42-1.506,1.07-1.103,0.652-2.609
	c1.021,0.369,0.283-1.021,1.305-0.652c0-0.435,0-0.87,0-1.305c1.021,0.369,0.283-1.021,1.304-0.652c0-0.435,0-0.87,0-1.305
	c1.021,0.369,0.283-1.021,1.305-0.652c-0.419-1.506,1.071-1.103,0.652-2.609c1.021,0.369,0.283-1.021,1.304-0.652
	c-0.418-1.506,1.072-1.103,0.652-2.609c1.021,0.369,0.283-1.021,1.305-0.652c0-0.435,0-0.87,0-1.304
	c1.113,0.026,0.844-1.331,1.957-1.305c0-0.435,0-0.87,0-1.305c1.113,0.026,0.844-1.331,1.957-1.305
	c0.063-0.589-0.306-1.61,0.652-1.304c0-0.652,0-1.305,0-1.957c1.286-0.235,0.67-2.373,1.957-2.609
	c0.26-0.827-0.621-2.795,0.652-2.609c-0.443-2.833,1.094-3.688,0.652-6.522c1.271,0.186,0.393-1.782,0.652-2.609
	c1.271,0.186,0.392-1.782,0.652-2.609c1.16,0.291,0.465-1.273,0.652-1.957c1.16,0.291,0.465-1.274,0.651-1.957
	c1.063,0.398,0.646-1.801,0.652-1.739c0.095-0.323,0.278,0.086,0.652,0c-0.243-2.055,1.435-2.189,1.305-4.131
	c1.021,0.369,0.283-1.021,1.304-0.652c0-0.435,0-0.87,0-1.305c2.395-1.93,3.936-3.424,5.871-5.87
	c0.589-0.063,1.61,0.306,1.305-0.652c0.684-0.187,2.248,0.508,1.957-0.652c1.738,0,3.479,0,5.218,0c0,0.145,0,0.29,0,0.435
	c0.302,0.496,1.513,0.081,2.175,0.217c-0.151,0.175-0.339,0.596,0,0.652c2.451-0.06,3.588,3.078,5,4.783
	c0.24,0.775-0.59,2.619,0.652,2.392c0,2.609,0,5.218,0,7.827c-0.217,0-0.436,0-0.652,0c0,1.522,0,3.044,0,4.566
	c-0.217,0-0.435,0-0.652,0c0,1.305,0,2.609,0,3.914c-1.469-0.092-0.09,2.663-0.869,3.261c-0.323-0.095,0.086-0.278,0-0.652
	c-0.768,0.465-0.313,2.152-0.436,3.261c-1.16-0.291-0.465,1.274-0.652,1.957c-1.348-0.478,0.043,1.782-1.305,1.305
	c0.298,0.644-0.127,0.946,0,1.957c-0.854,0.45-1.217,1.393-1.305,2.609c-0.854,0.449-1.217,1.392-1.304,2.609
	c-0.757-0.301-1.024,0.977-0.652,1.087c-1.294,0.055-1.272,2.797-2.608,3.479c0,0.652,0,1.304,0,1.957
	c-0.352,0.062-0.375-0.205-0.652-0.217c-0.112,0.613,0.388,1.837-0.652,1.522c-0.052,3.21-1.906,4.617-1.957,7.827
	c-1.348-0.478,0.043,1.782-1.305,1.305c0,0.652,0,1.305,0,1.957c-1.348-0.478,0.043,1.782-1.305,1.305
	c-0.069,1.822-0.481,3.074-1.957,3.914c0.42,1.506-1.071,1.103-0.652,2.609c-1.021-0.369-0.283,1.021-1.305,0.652
	c0.639,1.379-1.668,1.834-0.652,2.174c-0.399,0.563-1.432,0.782-1.305,2.392c-1.514,0.877-2.139,2.645-2.608,4.566
	c-1.021-0.369-0.283,1.021-1.305,0.652c-1.147,4.301-4.479,8.267-5.87,13.045c-0.217,0-0.436,0-0.652,0
	c-0.26,0.827,0.621,2.794-0.652,2.609c0,1.305,0,2.609,0,3.914c-0.217,0-0.435,0-0.652,0c0.479,2.218-0.887,2.593-0.652,4.566
	c-0.217,0-0.435,0-0.652,0c0,1.087,0,2.174,0,3.261c-0.352,0.062-0.374-0.206-0.652-0.217c0,0.797,0,1.594,0,2.392
	c-0.859-0.72,0.263,0.883-0.652,0.217c0,2.029,0,4.059,0,6.088c-1.532-0.446,0.229,2.402-1.305,1.957
	c-0.131,1.728,0.34,4.192-0.652,3.913c-0.186,0.684,0.509,2.248-0.651,1.957c-0.261,0.827,0.62,2.795-0.652,2.609
	c0,1.521,0,3.043,0,4.565c-0.218,0-0.435,0-0.652,0c0.161,2.118-1.129,2.785-0.652,5.218c-1.341-0.035-0.347,2.264-0.652,3.262
	c-1.272-0.186-0.392,1.782-0.652,2.609c-1.532-0.445,0.229,2.402-1.304,1.957c0,0.869,0,1.738,0,2.608
	c-1.161-0.29-0.467,1.274-0.652,1.957c-1.161-0.291-0.467,1.274-0.652,1.957c-1.161-0.291-0.467,1.273-0.652,1.956
	c-0.218,0-0.436,0-0.652,0c0.244,2.018-0.822,1.374-0.652,3.262c-1.097,0.908-1.315,1.434-1.305,3.262
	c-0.855,0.449-1.217,1.393-1.305,2.609c-0.958-0.307-0.589,0.715-0.652,1.304c-0.855,0.45-1.217,1.393-1.305,2.609
	c-0.854,0.449-1.217,1.392-1.305,2.608c-1.19,0.114-0.559,2.051-1.957,1.957c0.42,1.507-1.07,1.104-0.651,2.609
	c-1.021-0.369-0.283,1.021-1.305,0.652c0,0.435,0,0.869,0,1.305c-1.021-0.369-0.283,1.021-1.305,0.652c0,0.435,0,0.869,0,1.305
	c-2.009,0.601-1.876,3.342-3.913,3.913c0.137,1.877-1.442,2.037-1.305,3.913c-0.218,0-0.436,0-0.652,0c0,0.87,0,1.74,0,2.609
	c-1.16-0.291-0.466,1.273-0.652,1.957c-1.16-0.291-0.466,1.273-0.652,1.957c-0.958-0.306-0.589,0.715-0.652,1.305
	c-1.021-0.369-0.283,1.021-1.305,0.652c0,0.652,0,1.305,0,1.957c-0.855,0.449-1.217,1.392-1.305,2.608
	c-0.854,0.45-1.217,1.392-1.305,2.608c-1.021-0.368-0.283,1.021-1.305,0.652c0.42,1.507-1.07,1.104-0.651,2.609
	c-1.021-0.369-0.283,1.021-1.305,0.652c-0.088,1.217-0.45,2.16-1.305,2.609c0,0.725,0,1.449,0,2.174
	c-1.188-0.867,0.132,3.48-1.304,3.696c0.063,0.589-0.307,1.61,0.651,1.305c0,9.132,0,18.264,0,27.396c-32.179,0-64.356,0-96.535,0
	c0-0.87,0-1.74,0-2.609c1.273,0.186,0.392-1.781,0.652-2.609c1.272,0.186,0.392-1.781,0.652-2.609
	c1.272,0.186,0.392-1.781,0.652-2.608c1.272,0.186,0.392-1.782,0.652-2.608c1.273,0.186,0.393-1.783,0.652-2.609
	c0.351-0.062,0.375,0.205,0.652,0.217c-0.068-2.967,1.512-4.285,1.305-7.393c1.161,0.291,0.465-1.273,0.652-1.957
	c1.205,0.264,0.437-1.447,0.652-2.174c0.175,0.115,0.353,0.227,0.652,0.218c0.26-0.827-0.62-2.795,0.652-2.609
	c0-1.739,0-3.479,0-5.218c0.217,0,0.435,0,0.652,0c0-8.189,0-16.379,0-24.568c-0.035-0.256-0.396-0.184-0.652-0.218
	c-0.123-0.606,0.164-1.145,0-1.739c-0.099-0.357-0.497,0.001-0.652-0.218c-0.173-0.243,0.147-0.823,0-1.087
	c-0.098-0.175-0.608-0.123-0.652-0.217c-0.135-0.291,0.156-0.81,0-1.088c-0.12-0.215-0.57-0.075-0.652-0.217
	c-0.392-0.679-0.048-2.12-1.305-1.957c-0.02-0.813-0.244-0.62,0-1.305c-1.221,0.025-1.729-2.25-3.261-2.609
	c0.279-1.475-1.493-2.486-2.609-3.262c0.092-1.613-1-2.043-1.957-2.608c0.091-1.613-1-2.044-1.957-2.609
	c0.092-1.613-1-2.044-1.957-2.608c0.159-1.246-0.451-1.724-1.305-1.957c0.159-1.246-0.451-1.724-1.305-1.957
	c0-0.362,0-0.725,0-1.087c-1.61-0.637-1.615-2.878-3.261-3.479c0.159-1.246-0.451-1.723-1.304-1.956
	c0.159-1.247-0.451-1.724-1.305-1.957c0.159-1.246-0.451-1.724-1.305-1.956c0.092-1.614-1-2.045-1.957-2.609
	c0.159-1.246-0.451-1.724-1.305-1.957c-0.059-1.898-1.487-2.427-2.609-3.262c0-0.362,0-0.725,0-1.087
	c-2.483-1.503-3.328-4.644-5.871-6.088c0.065-1.58-1.35-2.417-2.609-3.261c0.217-1.885-1.49-1.844-1.957-3.045
	c0.175,0.115,0.353,0.228,0.652,0.218c-1.714-1.411-1.094-2.175-2.609-3.044c-0.063-0.589,0.306-1.61-0.652-1.304
	c-0.088-1.217-0.45-2.16-1.305-2.609c-0.063-0.589,0.306-1.61-0.652-1.305c0.42-3.029-1.018-4.2-1.304-6.522
	c-0.095-0.323-0.278,0.085-0.652,0c0.149-1.454-0.212-2.397-1.305-2.609c-0.088-1.437-1.066-3.133-1.739-3.261
	c-0.1-0.552-0.754-2.24-1.522-2.174c0.75-0.38-0.53-1.537-1.305-1.739c-0.24-2.151-1.95-2.833-3.261-3.914c0-0.362,0-0.725,0-1.087
	c-3.315-3.28-6.832-6.358-9.784-10.001c-0.435,0-0.87,0-1.304,0c0.369-1.021-1.021-0.283-0.652-1.305c-0.435,0-0.87,0-1.305,0
	c-1.244-1.479-2.609-3.856-4.566-3.914c-0.08-0.37,0.17-0.41,0.435-0.435c-2.541-1.59-4.477-3.785-6.305-6.088
	c-0.589-0.063-1.61,0.306-1.305-0.652c-2.642,0.178-3.362-1.566-6.088-1.305c-0.095-0.756-2.144-1.295-3.696-1.305
	c0.309-1.106-1.095-0.5-1.74-0.652c1.083-0.732-1.359-1.245-1.522-2.609c-0.435,0-0.87,0-1.304,0
	c0.13-0.565-0.087-0.782-0.652-0.652c-0.063-0.589,0.306-1.61-0.652-1.305C48.547,122.058,48.547,120.536,48.547,119.014z"/>
</svg>
