<?xml version="1.0" encoding="utf-8"?>
<!-- Generator: Adobe Illustrator 15.0.0, SVG Export Plug-In . SVG Version: 6.00 Build 0)  -->
<!DOCTYPE svg PUBLIC "-//W3C//DTD SVG 1.1//EN" "http://www.w3.org/Graphics/SVG/1.1/DTD/svg11.dtd">
<svg version="1.1" id="Layer_1" xmlns="http://www.w3.org/2000/svg" xmlns:xlink="http://www.w3.org/1999/xlink" x="0px" y="0px"
	 width="13.5px" height="46px" viewBox="0 0 13.5 46" enable-background="new 0 0 13.5 46" xml:space="preserve">
<path fill-rule="evenodd" clip-rule="evenodd" d="M6.585,2.184C6.563,2.085,6.63,2.074,6.7,2.068
	C6.794,2.09,6.815,2.184,6.932,2.184c4.648,7.26,5.592,21.535,3.816,33.076c-0.378,2.457-1.014,8.688-4.048,8.673
	c-2.892-0.015-3.605-5.789-4.047-8.789C0.978,23.771,1.814,9.186,6.585,2.184z M6.585,3.224c0.152,12.917-0.306,26.387,0.231,38.858
	C6.739,29.053,6.97,15.714,6.7,2.878C6.694,3.025,6.552,3.038,6.585,3.224z M6.932,43.123c-0.005-0.159,0.055-0.254,0.116-0.348
	c-0.229,0-0.147-0.315-0.462-0.23C6.359,42.768,6.464,43.252,6.932,43.123z"/>
<rect x="6.229" y="2.736" fill-rule="evenodd" clip-rule="evenodd" width="0.896" height="40.971"/>
</svg>
