<?xml version="1.0" encoding="utf-8"?>
<!-- Generator: Adobe Illustrator 15.0.0, SVG Export Plug-In . SVG Version: 6.00 Build 0)  -->
<!DOCTYPE svg PUBLIC "-//W3C//DTD SVG 1.1//EN" "http://www.w3.org/Graphics/SVG/1.1/DTD/svg11.dtd">
<svg version="1.1" id="Layer_1" xmlns="http://www.w3.org/2000/svg" xmlns:xlink="http://www.w3.org/1999/xlink" x="0px" y="0px"
	 width="326px" height="293px" viewBox="0 0 326 293" enable-background="new 0 0 326 293" xml:space="preserve">
<path fill-rule="evenodd" clip-rule="evenodd" d="M224,16c3,0,6,0,9,0c26.54,11.813,42.827,47.208,55,80
	c12.751,34.349,20.09,69.765,23,106c0,13.333,0,26.667,0,40c-2.08,12.254-0.522,28.145-10,33c-2,0-4,0-6,0
	c-17.858-13.475-30.288-32.379-39-55c-2.333,0-4.667,0-7,0c-7.932-18.761-27.643-24.119-38-45c-3.861-7.784-3.999-16.79-15-13
	c-12.77,4.399-27.147,20.548-49,15c-5.821-1.478-11.56-6.199-14-9c-4.935-5.665-3.457-11.313-7-22
	c-6.373-19.221-32.195-28.139-37-56c-16.966,14.806-48.502,11.536-66,24c-5.908-0.753-3.542-5.311-9-5c-0.58-4.247,2.695-4.638,5-6
	c-1.022-2.228-4.598,1.308-8,0c0-0.667,0-1.333,0-2c3.541-4.459,12.704-3.296,17-7c0.871-5.031-3.071-9.505,1-12
	c3.713,3.62,2.84,11.826,9,13c11.778-9.059,26.45-3.88,38-11c8.817-5.435,12.496-19.69,29-16c5.114-12.755-1.384-28.986,11-36
	c2.338-1.324,6.537,0.286,9-3c7.165,2.835,12.045,7.955,20,10c-0.054,1.72,0.77,2.563,2,3c-2.687,6.005-7.321,13.035-5,21
	c-7.749,1.72-2.737,10.002-11,11c4.083,3.251,3.406,11.26,10,12c3.331-1.003,6.87-1.797,10-3c4.154,1.512,6.319,5.014,9,8
	c4.695-5.638,10.429-10.238,14-17c23.998,0.335,20.229,28.438,35,38c12.734-11.852,0.671-29.94,1-49c-6.559-3.268-15.275,1.81-19,1
	c3.647-11.687,8.438-22.229,19-27C211.983,27.317,215.265,18.932,224,16z M146,112c4.543-2.457,4.375-9.625,7-14
	c-2.711-1.289-5.553-2.447-10-2C141.855,103.478,145.273,106.394,146,112z M170,139c9.525-2.02,19.983-5.175,29-4
	c19.245,2.508,22.271,25.452,31,40c2.683,4.471,5.488,9.202,8,13c2.23,3.373,4.789,9.1,9,8c-9.327-26.34-15.758-55.576-27-80
	c-1.824,4.509-0.053,12.614-6,13c-13.238-6.429-22.913-16.42-32-27C179.451,115.122,171.004,127.665,170,139z"/>
</svg>
