<?xml version="1.0" encoding="utf-8"?>
<!-- Generator: Adobe Illustrator 15.0.0, SVG Export Plug-In . SVG Version: 6.00 Build 0)  -->
<!DOCTYPE svg PUBLIC "-//W3C//DTD SVG 1.1//EN" "http://www.w3.org/Graphics/SVG/1.1/DTD/svg11.dtd">
<svg version="1.1" id="Layer_1" xmlns="http://www.w3.org/2000/svg" xmlns:xlink="http://www.w3.org/1999/xlink" x="0px" y="0px"
	 width="326px" height="293px" viewBox="0 0 326 293" enable-background="new 0 0 326 293" xml:space="preserve">
<path fill-rule="evenodd" clip-rule="evenodd" d="M210.783,17.848c-2.714,5.439-11.893,4.425-12.235,12.235
	c39.538,15.945,61.166,40.242,76.476,79.538c6.024,15.454,7.032,32.631,13.767,48.942c5.358,12.988,23.245,20.146,18.354,38.24
	c-2.833-2.771-3.804-7.414-7.65-9.176c-13.517,7.383-18.315,23.488-22.939,39.764c-4.735-18.396,0.125-42.26-4.587-58.117
	c-13.859-46.677-78.554-59.933-134.598-47.416c3.791,5.893,15.789,3.583,21.41,7.648c-18.329,19.978-44.2-2.216-65.765-4.587
	c-29.395-3.243-43.366,15.921-68.827,21.41c-1.717-12.964,10.026-24.247,16.823-33.651C23.08,63.348,65.73,21.769,114.424,16.323
	c8.569-0.959,17.755,2.539,26.001,1.525c10.704-1.307,20.699-9.404,39.769-7.643C191.802,11.269,199.097,15.962,210.783,17.848z"/>
<path fill-rule="evenodd" clip-rule="evenodd" d="M297.971,239.633c-13.126,26.039-37.784,47.412-70.358,47.412
	c-25.834,0-48.606-15.236-67.302-29.059c-14.756-10.918-42.601-37.629-58.124-36.713c-22.846,1.355-17.033,37.641,10.712,32.119
	c-8.141,11.195-24.67,20.209-44.355,13.768c-41.96-13.723-45.427-91.463,4.586-100.947c57.438-10.893,69.17,33.943,107.065,52.004
	c23.427-8.309-10.35-61.881-18.354-29.064c-12.509-4.93-6.254-22.143,1.53-27.527c68.635-17.824,44.344,92.396,91.768,97.885
	C275.759,261.9,286.773,250.014,297.971,239.633z"/>
</svg>
