<?xml version="1.0" encoding="utf-8"?>
<!-- Generator: Adobe Illustrator 15.0.0, SVG Export Plug-In . SVG Version: 6.00 Build 0)  -->
<!DOCTYPE svg PUBLIC "-//W3C//DTD SVG 1.1//EN" "http://www.w3.org/Graphics/SVG/1.1/DTD/svg11.dtd">
<svg version="1.1" id="Layer_1" xmlns="http://www.w3.org/2000/svg" xmlns:xlink="http://www.w3.org/1999/xlink" x="0px" y="0px"
	 width="326px" height="293px" viewBox="0 0 326 293" enable-background="new 0 0 326 293" xml:space="preserve">
<path fill-rule="evenodd" clip-rule="evenodd" fill="#FFFFFF" d="M110.511,70.236c-0.913,1.371-1.65,2.916-4.36,2.49
	C106.239,70.53,108.945,70.953,110.511,70.236z"/>
<path fill-rule="evenodd" clip-rule="evenodd" fill="#FFFFFF" d="M68.168,87.671c0.835,0.409,1.159,1.332,1.245,2.491
	c1.349,0.105,0.281-2.208,0.622-3.112c0.83,0.809,1.88,0.382,2.491-0.624c1.09,1.318,0.043,1.808,0,3.736
	c-1.521-1.579-1.326,1.313-3.736,0.624C68.267,90.062,67.969,89.115,68.168,87.671z"/>
<path fill-rule="evenodd" clip-rule="evenodd" fill="#FFFFFF" d="M63.808,88.916c-1.422,1.811-1.4,3.155,0.622,4.36
	c-0.439,2.257-4.538,0.857-6.849,1.245c0.423-3.987,0.748-3.959-0.623-6.85C58.792,86.444,63.316,86.836,63.808,88.916z"/>
<path fill-rule="evenodd" clip-rule="evenodd" fill="#FFFFFF" d="M182.122,225.911c14.316-2.22,38.716-1.695,51.061,0
	C217.182,228.078,197.631,228.835,182.122,225.911z"/>
<path fill-rule="evenodd" clip-rule="evenodd" fill="#FFFFFF" d="M111.756,66.499c-5.292,0.612-7.741,4.602-12.454,2.491
	c-1.946,0.546-44.399,12.951-67.252,8.096c20.288-8.055,47.873-8.955,71.61-8.717C106.047,66.981,107.882,64.728,111.756,66.499z"/>
<path fill-rule="evenodd" clip-rule="evenodd" fill="#FFFFFF" d="M75.64,87.049c-1.04,0.073,0.709,2.655-1.868,2.49
	c0-1.039,0-2.076,0-3.114c0.884,0.053,1.763,0.103,1.868-0.622c0.765,0.271,1.278,0.796,1.246,1.868
	c0.532-0.375,1.604-3.728,1.867-0.622c0.729-0.102,0.526-1.137,0.624-1.869c1.759,0.515,1.613-0.878,3.113-0.624
	c0,0.832,0,1.661,0,2.493c0.846-0.194,0.517-1.56,0.623-2.493c1.959-0.712,1.513,0.978,2.491,1.247
	c1.308-0.174-0.902-1.663,0.624-2.492c2.316-0.655,1.22,2.101,2.491,2.492c-0.155,0.783-1.239,0.627-1.245,0
	c-0.848,0.118-6.204,4.743-6.851,0.622c-1.151,0.094-0.382,2.108-1.245,2.491c-1.464-1.917-0.37-0.248-2.491,0
	C76.912,87.851,76.422,87.304,75.64,87.049z"/>
<path fill-rule="evenodd" clip-rule="evenodd" d="M305.415,207.229c0,3.321,0,6.642,0,9.964c1.438-1.679,0.223-6.006,0.624-8.72
	c2.528,4.807,0.592,14.271-0.624,19.305c-14.921-2.147-35.457,6.23-51.061,10.586c-13.132,3.667-27.253,8.028-41.721,9.341
	c-9.006,0.817-20.76-2.375-31.758-3.112c-5.073-0.342-10.511,0.887-14.945,0c-3.821-0.768-7.132-4.107-11.208-5.604
	c-18.554-6.818-40.161-2.399-59.78,0.621c-3.06,0.82-2.093-4.444-4.359-2.491c-31.562,3.793-65.575,0.279-77.214-21.793
	c-4.838-9.175-11.252-26.379-7.472-37.363c2.024-5.884,14.151-15.98,18.681-19.303c28.008-20.544,76.659-27.574,123.918-21.795
	c21.359,2.612,41.009,8.083,59.78,15.567c8.966,3.575,18.461,6.785,29.264,8.719c31.789,5.687,66.087,4.913,77.217-20.551
	c-11.936-19.638-46.753-24.297-77.837-21.794c-20.806,1.677-42.038,5.919-61.649,5.604c-11.014-0.177-31.401-3.07-35.493-11.208
	c-2.157-4.292-3.1-19.851-1.245-24.907c1.618-4.411,9.133-9.034,14.322-10.586c20.526-6.142,53.106-3.306,67.875-13.077
	c-3.948-4.782-12.561-5.582-19.305-5.604c-23.534-0.077-51.333,7.866-69.12,14.323c-1.507,1.606,0.114,6.34-1.246,8.095
	c-8.266,4.395-22.233,3.088-28.644,9.341c-15.27-1.322-31.75,5.596-50.438,6.849c-16.062,1.077-31.435-1.755-44.212-7.472
	c-1.924-5.548-3.403-11.541-3.736-18.68c15.27-14.242,42.557-18.021,69.742-19.927c13.346-0.937,28.429-3.604,39.23,1.245
	c5.334,2.396,4.967,9.624,14.322,8.095c4.816-0.788,9.901-5.594,16.19-7.473c6.128-1.83,13.255-2.467,19.926-3.736
	c24.036-4.57,50.74-9.745,64.138,6.85c-0.415,7.772,1.217,14-1.866,18.681c-4.898,7.437-28.478,11.564-40.478,13.077
	c-6.563,0.827-15.582,0.9-24.284,2.491c-5.929,1.082-17.568,5.449-17.436,8.717c0.221,5.454,28.012,9.911,36.117,9.962
	c33.809,0.217,83.813-14.282,117.689-0.622c5.199,2.096,12.62,7.593,16.19,11.832c2.468,2.928,6.852,8.439,7.472,11.831
	c1.891,10.317-5.419,25.622-9.963,31.759c-17.077,23.063-64.556,18.636-92.158,8.716c-8.584-3.083-16.186-7.494-24.91-9.963
	c-26.025-7.365-54.844-14.857-88.422-12.453c-13.32,0.952-28.605,5.283-42.966,9.339c-20.692,5.846-32.496,13.21-44.835,26.777
	c-2.822,3.104-6.989,7.274-6.849,11.83c0.165,5.367,8.979,13.074,13.699,14.947c21.667,8.592,49.152,3.456,74.725,1.867
	c14.889-0.925,30.365-2.21,47.325-5.605c28.894-5.783,63.66-4.758,99.008-5.604c19.847-0.478,39.043,3.294,52.931,1.246
	C301.193,205.335,299.496,208.238,305.415,207.229z M103.661,68.368c-23.738-0.237-51.323,0.662-71.61,8.717
	c22.853,4.855,65.307-7.549,67.252-8.096c4.713,2.111,7.162-1.879,12.454-2.491C107.882,64.728,106.047,66.981,103.661,68.368z
	 M106.151,72.727c2.71,0.426,3.447-1.12,4.36-2.49C108.945,70.953,106.239,70.53,106.151,72.727z M76.885,88.916
	c2.121-0.248,1.026-1.917,2.491,0c0.863-0.382,0.094-2.396,1.245-2.491c0.646,4.121,6.002-0.504,6.851-0.622
	c0.006,0.627,1.09,0.783,1.245,0c-1.271-0.391-0.175-3.147-2.491-2.492c-1.525,0.829,0.684,2.317-0.624,2.492
	c-0.978-0.269-0.532-1.958-2.491-1.247c-0.106,0.933,0.223,2.298-0.623,2.493c0-0.832,0-1.661,0-2.493
	c-1.5-0.254-1.354,1.138-3.113,0.624c-0.098,0.732,0.106,1.767-0.624,1.869c-0.263-3.106-1.335,0.247-1.867,0.622
	c0.033-1.071-0.48-1.596-1.246-1.868c-0.105,0.725-0.984,0.675-1.868,0.622c0,1.038,0,2.076,0,3.114
	c2.578,0.165,0.829-2.417,1.868-2.49C76.422,87.304,76.912,87.851,76.885,88.916z M65.676,87.671
	c-1.023,0.968-0.266,2.906,0.624,3.736c-0.546-2.902,1.615,0.858,1.869-1.245C66.897,89.771,67.993,87.016,65.676,87.671z
	 M68.79,90.785c2.41,0.689,2.215-2.202,3.736-0.624c0.043-1.928,1.09-2.418,0-3.736c-0.611,1.006-1.661,1.433-2.491,0.624
	c-0.341,0.904,0.727,3.217-0.622,3.112c-0.086-1.159-0.41-2.082-1.245-2.491C67.969,89.115,68.267,90.062,68.79,90.785z
	 M56.958,87.671c1.371,2.891,1.046,2.863,0.623,6.85c2.311-0.388,6.409,1.012,6.849-1.245c-2.022-1.205-2.044-2.549-0.622-4.36
	C63.316,86.836,58.792,86.444,56.958,87.671z M233.183,225.911c-12.345-1.695-36.744-2.22-51.061,0
	C197.631,228.835,217.182,228.078,233.183,225.911z"/>
<path fill-rule="evenodd" clip-rule="evenodd" fill="#FFFFFF" d="M68.168,90.162c-0.254,2.103-2.415-1.657-1.869,1.245
	c-0.89-0.83-1.647-2.768-0.624-3.736C67.993,87.016,66.897,89.771,68.168,90.162z"/>
<polygon fill-rule="evenodd" clip-rule="evenodd" fill="#010101" points="48.409,86.378 51.329,96.208 100.301,86.378 98.68,78.438 
	"/>
<polygon fill-rule="evenodd" clip-rule="evenodd" fill="#010101" points="55.003,92.315 65.706,91.407 65.706,94.153 58.356,96.208 
	"/>
<path fill-rule="evenodd" clip-rule="evenodd" fill="#010101" d="M99.004,62.911v8.606l9.327,3.069c0,0,10.132-2.463,10.132-3.069
	c0-0.607,0.647-5.472-0.541-6.12c-1.188-0.649-5.297-3.783-5.297-3.783L99.004,62.911z"/>
</svg>
