<?xml version="1.0" encoding="utf-8"?>
<!-- Generator: Adobe Illustrator 15.0.0, SVG Export Plug-In . SVG Version: 6.00 Build 0)  -->
<!DOCTYPE svg PUBLIC "-//W3C//DTD SVG 1.1//EN" "http://www.w3.org/Graphics/SVG/1.1/DTD/svg11.dtd">
<svg version="1.1" id="Layer_1" xmlns="http://www.w3.org/2000/svg" xmlns:xlink="http://www.w3.org/1999/xlink" x="0px" y="0px"
	 width="360px" height="360px" viewBox="0 0 360 360" enable-background="new 0 0 360 360" xml:space="preserve">
<path fill-rule="evenodd" clip-rule="evenodd" fill="#FFFFFF" d="M744-371c12,0,24,0,36,0c0,13,0,26,0,39
	c-5.712,1.045-1.898-7.435-3-11c-6.494-7.843-11.721-22.273-23-22c-1.556-0.261-0.693-2.193,0-3c-3.039-0.627-8.613,1.28-10-1
	C744-369.667,744-370.333,744-371z"/>
<path fill-rule="evenodd" clip-rule="evenodd" d="M184.512,59.396c2.211,4.307-0.214,8.108-2.506,11.293
	C165.962,73.996,171.871,50.679,184.512,59.396z M183.259,61.906c-0.979-0.276-1.458-1.052-1.253-2.509
	c-4.333-1.305-9.525,2.892-6.275,5.019C175.621,59.348,183.369,64.088,183.259,61.906z"/>
<path fill-rule="evenodd" clip-rule="evenodd" d="M277.367,105.823c-3.387,3.184-10.525,5.425-15.059,3.766
	C259.495,95.94,278.924,87.526,277.367,105.823z M267.33,103.313c0.701-1.807,1.958-3.061,3.765-3.762
	c1.48,0.181,2.844,2.233,3.763,0c-2.493-0.018-1.595-3.424-5.018-2.51C268.868,98.305,263.823,101.705,267.33,103.313z"/>
<path fill-rule="evenodd" clip-rule="evenodd" fill="#FFFFFF" d="M269.84,97.041c3.423-0.914,2.524,2.492,5.018,2.51
	c-0.919,2.233-2.282,0.181-3.763,0c-1.807,0.702-3.063,1.955-3.765,3.762C263.823,101.705,268.868,98.305,269.84,97.041z"/>
<path fill-rule="evenodd" clip-rule="evenodd" d="M169.455,100.804c0.769,8.296-2.667,12.388-5.018,17.565
	c-5.146-3.219-8.377-8.35-7.529-17.565C161.695,98.838,164.89,97.74,169.455,100.804z M160.672,107.079
	c-1.689-6.137,5.894-3.766,6.274-1.256c2.09-2.492-0.113-1.595,0-5.019c-2.092,0-4.183,0-6.274,0
	C158.883,100.949,158.883,111.064,160.672,107.079z"/>
<path fill-rule="evenodd" clip-rule="evenodd" fill="#FFFFFF" d="M160.672,100.804c2.092,0,4.183,0,6.274,0
	c-0.113,3.423,2.09,2.527,0,5.019c-0.381-2.51-7.963-4.881-6.274,1.256C158.883,111.064,158.883,100.949,160.672,100.804z"/>
<path fill-rule="evenodd" clip-rule="evenodd" d="M168.2,130.92c-1.062,21.372,2.667,53.692,30.117,45.17
	c10.447-3.243,17.049-39.95,28.859-13.801c14.949-2.617,10.722-24.411,25.095-27.606c0.293,10.345-0.092,22.248-5.02,31.37
	c-4.12,7.635-11.569,8.49-13.801,15.056c-2.88,8.474-2.617,14.37-1.256,21.331c1.851,9.46,31.838,25.776,18.821,43.921
	c-11.724,16.345-58.158,18.319-89.089,16.309c-29.486-1.913-69.551-11.573-72.777-22.585c-6.726-22.949,33.615-32.239,26.35-63.994
	c-2.021-8.836-7.309-6.658-12.548-16.311c-0.42-4.605,1.928-6.438,5.021-7.528c-7.048-4.016-15.576-22.997,2.51-21.332
	c7.659,9.489,4.8,29.496,18.821,32.623c0.854-1.56-1.212-11.542,2.51-13.804c3.515-1.442,6.524-1.442,10.039,0
	c3.994,5.066-0.809,11.48,2.51,17.569C171.987,167.678,143.07,124.43,168.2,130.92z M101.697,139.702
	c2.639,4.5,7.98,12.897,12.549,11.294c-3.203-2.655-4.634-7.079-6.274-11.294c0.771-1.738,4.831-0.189,5.02-2.51
	C110.774,132.028,101.369,132.498,101.697,139.702z M163.182,144.721c-7.805,16.693-0.589,40.93,16.311,41.411
	c-17.335-7.604-8.457-34.238-16.311-50.193c-1.255,0-2.51,0-3.765,0C158.098,141.44,163.662,140.06,163.182,144.721z
	 M243.488,157.27c3.606-6.014,6.853-12.388,8.782-20.078C243.006,136.731,245.046,154.2,243.488,157.27z M125.538,199.931
	c7.107-3.768,11.57-10.177,13.804-18.821c-5.855-1.675-5.341-9.715-5.02-17.566c4.737-1.118,7.465-4.245,7.529-10.038
	C123.883,147.076,136.93,191.602,125.538,199.931z M118.009,171.071c6.245,16.849-4.453,32.098-7.528,38.897
	c21.208-9.169,15.94-43.985,0-55.207C104.176,161.258,115.61,164.598,118.009,171.071z M217.138,157.27
	c-6.49,14.826-26.75,34.247-43.917,16.311c3.053,5.698,6.263,12.583,11.291,13.804c13.729,3.334,16.006-7.947,21.332-12.547
	c7.449-6.434,20.678-6.825,18.822-13.804C222.637,159.3,221.578,156.594,217.138,157.27z M217.138,184.875
	c-3.993-0.191-5.519-2.844-10.037-2.51c-4.8,9.839-11.31,17.971-27.608,16.313c-5.555-2.391-5.973-9.917-12.546-11.293
	c-2.056,9.583-23.721,18.452-26.35,2.509c-6.165,5.142-14.375,14.886-16.312,20.075c10.597-10.969,24.649-1.781,38.897,0
	c19.191,2.399,40.548-4.021,52.7,2.51c-4.437,4.348-13.589,3.978-22.586,3.767c-6.264,12.302-29.775,7.563-38.897,11.294
	c26.626,2.422,58.889,2.856,76.541-7.529c-8.541-20.045-1.578-52.114,6.274-62.74C229.501,165.449,221.713,173.556,217.138,184.875z
	 M139.341,246.361c8.04-1.823,14.357-8.206,22.585-7.531c11.191,0.919,20.421,14.429,30.116,2.509
	c-10.61,6.269-19.285-6.119-33.881-6.272c-19.407-0.203-41.583,15.649-46.426-5.02c-2.367-10.096,4.858-14.538,3.763-21.331
	C91.778,225.979,106.732,253.751,139.341,246.361z M123.029,216.245c18.208-8.386,39.67,16.361,46.425,0
	C154.44,224.591,136.415,199.272,123.029,216.245z M237.214,220.01c-12.736,9.847-32.523,12.646-50.19,17.566
	c18.009-0.639,40.67-4.57,53.955-13.804c-0.298-5.594-6.129-12.224-8.784-11.294C234.486,214.371,235.146,217.894,237.214,220.01z
	 M118.009,250.124c-12.271-3.414-24.181-15.56-18.822-28.861C82.425,234.87,105.51,251.231,118.009,250.124z M176.985,250.124
	c-6.538-0.615-10.667-7.846-16.313-7.529c-8.698,0.484-15.414,12.747-22.587,12.548c27.892,3.071,68.015,8.122,91.601-2.51
	c-4.586,0.854-9.125,1.751-15.058,1.256C207.15,235.666,190.384,251.385,176.985,250.124z"/>
<path fill-rule="evenodd" clip-rule="evenodd" fill="#FFFFFF" d="M112.991,137.192c-0.188,2.321-4.249,0.771-5.02,2.51
	c1.64,4.215,3.072,8.639,6.274,11.294c-4.569,1.603-9.91-6.793-12.549-11.294C101.369,132.498,110.774,132.028,112.991,137.192z"/>
<path fill-rule="evenodd" clip-rule="evenodd" fill="#FFFFFF" d="M159.417,135.938c1.255,0,2.51,0,3.765,0
	c7.854,15.955-1.024,42.589,16.311,50.193c-16.899-0.48-24.115-24.718-16.311-41.411C163.662,140.06,158.098,141.44,159.417,135.938
	z"/>
<path fill-rule="evenodd" clip-rule="evenodd" fill="#FFFFFF" d="M141.851,153.505c-0.064,5.793-2.792,8.92-7.529,10.038
	c-0.321,7.851-0.835,15.891,5.02,17.566c-2.233,8.645-6.697,15.054-13.804,18.821C136.93,191.602,123.883,147.076,141.851,153.505z"
	/>
<path fill-rule="evenodd" clip-rule="evenodd" fill="#FFFFFF" d="M224.666,161.034c1.855,6.979-11.373,7.37-18.822,13.804
	c-5.326,4.6-7.603,15.881-21.332,12.547c-5.028-1.221-8.238-8.106-11.291-13.804c17.167,17.936,37.427-1.485,43.917-16.311
	C221.578,156.594,222.637,159.3,224.666,161.034z"/>
<path fill-rule="evenodd" clip-rule="evenodd" d="M104.206,204.95c-14.732,13.307-46.212,10.894-61.484,23.842
	C55.573,213.201,79.331,208.518,104.206,204.95z"/>
<path fill-rule="evenodd" clip-rule="evenodd" d="M235.96,206.207c-0.231-1.067,0.487-1.185,1.254-1.257
	c20.024-0.726,37.817,5.007,53.958,11.295c12.438,4.847,28.871,9.635,30.112,23.84C302.093,219.543,265.399,216.499,235.96,206.207z
	"/>
<path fill-rule="evenodd" clip-rule="evenodd" d="M279.877,208.716c17.248,2.918,65.542,11.194,69.014,32.623
	c5.045,31.145-47.677,38.069-77.796,42.663c24.992-7.874,67.079-13.026,62.739-42.663
	C330.739,220.243,299.208,216.923,279.877,208.716z"/>
<path fill-rule="evenodd" clip-rule="evenodd" fill="#FFFFFF" d="M115.5,208.716c1.095,6.793-6.13,11.235-3.763,21.331
	c4.843,20.669,27.019,4.816,46.426,5.02c14.596,0.153,23.271,12.541,33.881,6.272c-9.695,11.92-18.925-1.59-30.116-2.509
	c-8.229-0.675-14.546,5.708-22.585,7.531C106.732,253.751,91.778,225.979,115.5,208.716z"/>
<path fill-rule="evenodd" clip-rule="evenodd" fill="#FFFFFF" d="M169.455,216.245c-6.755,16.361-28.217-8.386-46.425,0
	C136.415,199.272,154.44,224.591,169.455,216.245z"/>
<path fill-rule="evenodd" clip-rule="evenodd" d="M248.508,218.755c14.301,2.433,34.468,9.863,42.664,22.584
	C279.7,231.059,260.485,228.523,248.508,218.755z"/>
<path fill-rule="evenodd" clip-rule="evenodd" fill="#FFFFFF" d="M214.628,253.889c5.933,0.495,10.472-0.402,15.058-1.256
	c-23.586,10.632-63.708,5.581-91.601,2.51c7.173,0.199,13.889-12.063,22.587-12.548c5.647-0.316,9.776,6.914,16.313,7.529
	C190.384,251.385,207.15,235.666,214.628,253.889z"/>
<path fill-rule="evenodd" clip-rule="evenodd" d="M318.774,247.614c11.248,15.807-14.41,24.035-27.603,27.604
	C302.367,268.014,315.638,262.877,318.774,247.614z"/>
<path fill-rule="evenodd" clip-rule="evenodd" fill="#FFFFFF" d="M175.73,64.416c-3.25-2.127,1.942-6.324,6.275-5.019
	c-0.205,1.457,0.274,2.233,1.253,2.509C183.369,64.088,175.621,59.348,175.73,64.416z"/>
<path fill-rule="evenodd" clip-rule="evenodd" fill="#FFFFFF" d="M252.271,137.192c-1.93,7.69-5.176,14.064-8.782,20.078
	C245.046,154.2,243.006,136.731,252.271,137.192z"/>
<path fill-rule="evenodd" clip-rule="evenodd" fill="#FFFFFF" d="M110.481,154.762c15.94,11.222,21.208,46.038,0,55.207
	c3.075-6.8,13.773-22.049,7.528-38.897C115.61,164.598,104.176,161.258,110.481,154.762z"/>
<path fill-rule="evenodd" clip-rule="evenodd" fill="#FFFFFF" d="M237.214,157.27c-7.853,10.625-14.815,42.695-6.274,62.74
	c-17.651,10.386-49.914,9.951-76.541,7.529c9.122-3.73,32.633,1.008,38.897-11.294c8.997,0.211,18.149,0.581,22.586-3.767
	c-12.152-6.531-33.509-0.11-52.7-2.51c-14.249-1.781-28.301-10.969-38.897,0c1.937-5.189,10.147-14.934,16.312-20.075
	c2.629,15.943,24.294,7.074,26.35-2.509c6.573,1.376,6.991,8.902,12.546,11.293c16.299,1.658,22.809-6.474,27.608-16.313
	c4.519-0.334,6.044,2.318,10.037,2.51C221.713,173.556,229.501,165.449,237.214,157.27z"/>
<path fill-rule="evenodd" clip-rule="evenodd" d="M71.582,207.461c-15.271,10.293-47.889,10.049-41.407,40.153
	c4.012,18.634,33.543,24.878,47.683,30.116c3.43,1.269,15.34,5.195,6.274,3.764c-16.478-2.603-32.82-8.093-50.192-16.314
	c-17.662-8.354-34.676-24.602-11.293-40.15C35.454,216.51,56.432,211.773,71.582,207.461z"/>
<path fill-rule="evenodd" clip-rule="evenodd" fill="#FFFFFF" d="M232.194,212.479c2.655-0.93,8.486,5.7,8.784,11.294
	c-13.285,9.233-35.946,13.165-53.955,13.804c17.667-4.92,37.454-7.72,50.19-17.566C235.146,217.894,234.486,214.371,232.194,212.479
	z"/>
<path fill-rule="evenodd" clip-rule="evenodd" d="M85.386,217.501c-9.209,6.885-20.151,12.31-20.078,21.329
	c0.123,14.819,29.957,22.508,47.683,26.35c40.411,8.763,92.873,10.146,134.26,1.257c18.54-3.983,48.508-10.244,48.938-23.842
	c0.473-14.934-23.397-17.625-33.881-25.094c-2.456-2.061,7.251,1.002,12.549,2.509c12.729,3.616,38.148,10.898,40.152,23.839
	c3.53,22.776-30.813,32.654-53.955,36.392c-52.229,8.432-117.071,10.337-165.631-2.51c-19.89-5.265-56.566-16.901-55.211-35.136
	C41.449,225.974,70.15,225.538,85.386,217.501z"/>
<path fill-rule="evenodd" clip-rule="evenodd" fill="#FFFFFF" d="M99.188,221.263c-5.359,13.302,6.551,25.447,18.822,28.861
	C105.51,251.231,82.425,234.87,99.188,221.263z"/>
<path fill-rule="evenodd" clip-rule="evenodd" d="M151.889,266.437c34.792-2.999,106.988,11.197,106.656-35.136
	c35.855,14.733-9.484,34.377-38.898,37.646C198.369,271.311,173.823,269.018,151.889,266.437z"/>
<path fill-rule="evenodd" clip-rule="evenodd" d="M148.124,128.411c0.595,4.775-0.532,7.833-3.763,8.781
	C135.049,136.795,140.278,122.194,148.124,128.411z"/>
</svg>
