<?xml version="1.0" encoding="utf-8"?>
<!-- Generator: Adobe Illustrator 16.0.0, SVG Export Plug-In . SVG Version: 6.00 Build 0)  -->
<!DOCTYPE svg PUBLIC "-//W3C//DTD SVG 1.1//EN" "http://www.w3.org/Graphics/SVG/1.1/DTD/svg11.dtd">
<svg version="1.1" id="Layer_3" xmlns="http://www.w3.org/2000/svg" xmlns:xlink="http://www.w3.org/1999/xlink" x="0px" y="0px"
	 width="100px" height="100px" viewBox="0 0 100 100" enable-background="new 0 0 100 100" xml:space="preserve">
<g>
	<ellipse fill-rule="evenodd" clip-rule="evenodd" cx="50.069" cy="49.844" rx="14.465" ry="14.017"/>
	<path fill-rule="evenodd" clip-rule="evenodd" d="M72.458,50.626c0,11.981-10.024,21.693-22.389,21.693
		c-12.365,0-22.389-9.712-22.389-21.693c0-2.147,0.324-4.221,0.924-6.18h-6.616v30.427c0,1.576,1.288,2.864,2.863,2.864H75.01
		c1.576,0,2.865-1.288,2.865-2.864V44.446h-6.341C72.133,46.405,72.458,48.479,72.458,50.626z"/>
	<path fill-rule="evenodd" clip-rule="evenodd" d="M66.457,36.235h8.141c1.784,0,3.242-1.458,3.242-3.242v-7.762
		c0-1.785-1.458-3.243-3.242-3.243h-8.141c-1.785,0-3.243,1.458-3.243,3.243v7.762C63.213,34.776,64.672,36.235,66.457,36.235z"/>
	<path fill-rule="evenodd" clip-rule="evenodd" d="M50,1.125C23.007,1.125,1.125,23.007,1.125,50S23.007,98.875,50,98.875
		S98.875,76.993,98.875,50S76.993,1.125,50,1.125z M76.769,86.015H23.231c-5.087,0-9.246-3.764-9.246-9.244V23.23
		c0-5.481,4.159-9.245,9.246-9.245h53.538c5.086,0,9.246,3.764,9.246,9.245v53.541C86.015,82.251,81.855,86.015,76.769,86.015z"/>
</g>
</svg>
