<?xml version="1.0" encoding="utf-8"?>
<!-- Generator: Adobe Illustrator 15.0.0, SVG Export Plug-In . SVG Version: 6.00 Build 0)  -->
<!DOCTYPE svg PUBLIC "-//W3C//DTD SVG 1.1//EN" "http://www.w3.org/Graphics/SVG/1.1/DTD/svg11.dtd">
<svg version="1.1" id="Layer_1" xmlns="http://www.w3.org/2000/svg" xmlns:xlink="http://www.w3.org/1999/xlink" x="0px" y="0px"
	 width="100px" height="50px" viewBox="0 0 100 50" enable-background="new 0 0 100 50" xml:space="preserve">
<path fill="#111111" d="M98.413,46.51c0,1.193-1.973,2.16-4.405,2.16H5.6c-2.433,0-4.405-0.967-4.405-2.16V3.16
	C1.194,1.967,3.167,1,5.6,1h88.408c2.433,0,4.405,0.967,4.405,2.16V46.51z"/>
<g>
	<path fill="#FFFFFF" d="M9.962,3.684c3.74,0,5.663,2.237,5.663,6.152v0.769H11.99V9.591c0-1.748-0.699-2.412-1.923-2.412
		c-1.223,0-1.922,0.664-1.922,2.412c0,5.034,7.516,5.978,7.516,12.969c0,3.915-1.958,6.152-5.733,6.152s-5.733-2.237-5.733-6.152
		v-1.503H7.83v1.748c0,1.749,0.769,2.377,1.993,2.377s1.993-0.629,1.993-2.377c0-5.034-7.516-5.978-7.516-12.969
		C4.299,5.921,6.222,3.684,9.962,3.684z"/>
	<path fill="#FFFFFF" d="M21.532,3.963V22.84c0,1.748,0.769,2.377,1.993,2.377s1.993-0.63,1.993-2.377V3.963h3.636v18.633
		c0,3.915-1.958,6.152-5.733,6.152s-5.733-2.237-5.733-6.152V3.963H21.532z"/>
	<path fill="#FFFFFF" d="M39.813,28.434c-0.209-0.629-0.35-1.014-0.35-3.007v-3.845c0-2.272-0.769-3.111-2.517-3.111h-1.329v9.963
		h-3.845V3.963h5.803c3.985,0,5.698,1.853,5.698,5.628v1.923c0,2.517-0.804,4.16-2.517,4.964c1.923,0.804,2.552,2.657,2.552,5.208
		v3.775c0,1.188,0.035,2.063,0.419,2.972H39.813z M35.619,7.459v7.516h1.503c1.433,0,2.307-0.629,2.307-2.587V9.976
		c0-1.748-0.594-2.517-1.958-2.517H35.619z"/>
	<path fill="#FFFFFF" d="M49.67,14.835h4.964v3.496H49.67v10.103h-3.845V3.963h10.172v3.496H49.67V14.835z"/>
</g>
<g>
	<path fill="#1C75BC" d="M58.244,23.295c2.984,0,4.519,1.785,4.519,4.909v0.613h-2.9v-0.809c0-1.395-0.559-1.925-1.534-1.925
		c-0.977,0-1.534,0.53-1.534,1.925c0,4.017,5.997,4.77,5.997,10.349c0,3.123-1.563,4.908-4.575,4.908
		c-3.012,0-4.574-1.785-4.574-4.908v-1.2h2.901v1.395c0,1.396,0.613,1.897,1.59,1.897c0.976,0,1.59-0.502,1.59-1.897
		c0-4.017-5.997-4.77-5.997-10.348C53.726,25.08,55.26,23.295,58.244,23.295z"/>
	<path fill="#1C75BC" d="M63.652,23.518h9.483v2.789h-3.207v16.736H66.86V26.307h-3.208V23.518z"/>
	<path fill="#1C75BC" d="M74.221,28.204c0-3.124,1.646-4.909,4.658-4.909s4.658,1.785,4.658,4.909v10.153
		c0,3.123-1.646,4.908-4.658,4.908s-4.658-1.785-4.658-4.908V28.204z M77.289,38.552c0,1.396,0.613,1.925,1.59,1.925
		s1.59-0.529,1.59-1.925V28.009c0-1.395-0.613-1.925-1.59-1.925s-1.59,0.53-1.59,1.925V38.552z"/>
	<path fill="#1C75BC" d="M94.607,28.344v2.538c0,3.124-1.506,4.825-4.574,4.825h-1.45v7.336h-3.068V23.518h4.519
		C93.102,23.518,94.607,25.22,94.607,28.344z M88.583,26.307v6.611h1.45c0.977,0,1.506-0.446,1.506-1.841v-2.929
		c0-1.395-0.529-1.842-1.506-1.842H88.583z"/>
</g>
</svg>
