<?xml version="1.0" encoding="utf-8"?>
<!-- Generator: Adobe Illustrator 15.0.0, SVG Export Plug-In . SVG Version: 6.00 Build 0)  -->
<!DOCTYPE svg PUBLIC "-//W3C//DTD SVG 1.1//EN" "http://www.w3.org/Graphics/SVG/1.1/DTD/svg11.dtd">
<svg version="1.1" id="Layer_1" xmlns="http://www.w3.org/2000/svg" xmlns:xlink="http://www.w3.org/1999/xlink" x="0px" y="0px"
	 width="100px" height="50px" viewBox="0 0 100 50" enable-background="new 0 0 100 50" xml:space="preserve">
<path fill="#FFFFFF" d="M0.276,13.724C0.042,13.776,0.016,13.616,0,13.449c0.053-0.225,0.277-0.275,0.276-0.553
	C17.608,1.8,51.688-0.455,79.238,3.784c5.871,0.904,20.744,2.421,20.707,9.664c-0.034,6.903-13.818,8.608-20.981,9.662
	C51.813,27.109,16.994,25.114,0.276,13.724z M2.761,13.724c30.837-0.365,62.996,0.73,92.768-0.553
	c-31.106,0.184-62.949-0.366-93.595,0.277C2.285,13.464,2.315,13.803,2.761,13.724z M98.014,12.896
	c-0.38,0.012-0.605-0.13-0.828-0.276c-0.002,0.549-0.754,0.352-0.552,1.105C97.166,14.262,98.322,14.013,98.014,12.896z"/>
<rect x="1.547" y="12.119" fill="#FFFFFF" width="97.328" height="2.381"/>
</svg>
